<svg xmlns="http://www.w3.org/2000/svg" version="1.1" xmlns:xlink="http://www.w3.org/1999/xlink" xmlns:svgjs="http://svgjs.dev/svgjs" width="1000" height="1000" viewBox="0 0 1000 1000"><rect width="1000" height="1000" fill="#046380"></rect><g transform="matrix(0.7,0,0,0.7,149.57576150991508,422.1438239570992)"><svg viewBox="0 0 396 88" data-background-color="#046380" preserveAspectRatio="xMidYMid meet" height="222" width="1000" xmlns="http://www.w3.org/2000/svg" xmlns:xlink="http://www.w3.org/1999/xlink"><g id="tight-bounds" transform="matrix(1,0,0,1,0.2399977743908721,0.0884394580133403)"><svg viewBox="0 0 395.52 87.82312108397329" height="87.82312108397329" width="395.52"><g><svg viewBox="0 0 395.52 87.82312108397329" height="87.82312108397329" width="395.52"><g transform="matrix(1,0,0,1,0,54.27821211877393)"><svg viewBox="0 0 395.52 33.54490896519936" height="33.54490896519936" width="395.52"><g id="textblocktransform"><svg viewBox="0 0 395.52 33.54490896519936" height="33.54490896519936" width="395.52" id="textblock"><g><svg viewBox="0 0 395.52 33.54490896519936" height="33.54490896519936" width="395.52"><g transform="matrix(1,0,0,1,0,0)"><svg width="395.52" viewBox="1.25 -36.099998474121094 433.8699951171875 36.79999923706055" height="33.54490896519936" data-palette-color="#ffffff"><path d="M32.1-35.4L32.1-35.4Q31.9-32.85 31.83-30.5 31.75-28.15 31.75-26.9L31.75-26.9Q31.75-25.8 31.8-24.8 31.85-23.8 31.9-23.1L31.9-23.1 30.75-23.1Q29.95-27.3 28.73-29.75 27.5-32.2 25.8-33.23 24.1-34.25 21.8-34.25L21.8-34.25 20.65-34.25 20.65-5.7Q20.65-3.7 21.08-2.7 21.5-1.7 22.65-1.38 23.8-1.05 26-1L26-1 26 0Q24.45-0.05 21.88-0.1 19.3-0.15 16.5-0.15L16.5-0.15Q13.75-0.15 11.3-0.1 8.85-0.05 7.35 0L7.35 0 7.35-1Q9.6-1.05 10.75-1.38 11.9-1.7 12.3-2.7 12.7-3.7 12.7-5.7L12.7-5.7 12.7-34.25 11.6-34.25Q9.3-34.25 7.6-33.23 5.9-32.2 4.7-29.78 3.5-27.35 2.6-23.1L2.6-23.1 1.45-23.1Q1.55-23.8 1.58-24.8 1.6-25.8 1.6-26.9L1.6-26.9Q1.6-28.15 1.53-30.5 1.45-32.85 1.25-35.4L1.25-35.4Q3.55-35.35 6.28-35.3 9-35.25 11.75-35.25 14.5-35.25 16.7-35.25L16.7-35.25Q18.95-35.25 21.68-35.25 24.4-35.25 27.15-35.3 29.9-35.35 32.1-35.4ZM35.1-34.4L35.1-35.4Q36.35-35.35 38.47-35.3 40.6-35.25 42.7-35.25L42.7-35.25Q45.1-35.25 47.35-35.3 49.6-35.35 50.55-35.35L50.55-35.35Q57.5-35.35 60.95-33.08 64.4-30.8 64.4-26.65L64.4-26.65Q64.4-24.95 63.7-23.23 63-21.5 61.32-20.03 59.65-18.55 56.75-17.68 53.85-16.8 49.45-16.8L49.45-16.8 44.65-16.8 44.65-17.8 48.95-17.8Q51.9-17.8 53.42-18.93 54.95-20.05 55.52-21.93 56.1-23.8 56.1-26.1L56.1-26.1Q56.1-30.05 54.7-32.23 53.3-34.4 49.9-34.4L49.9-34.4Q47.95-34.4 47.37-33.55 46.8-32.7 46.8-30.1L46.8-30.1 46.8-5.3Q46.8-3.5 47.07-2.6 47.35-1.7 48.15-1.4 48.95-1.1 50.55-1L50.55-1 50.55 0Q49.2-0.1 47.15-0.13 45.1-0.15 43-0.15L43-0.15Q40.6-0.15 38.47-0.13 36.35-0.1 35.1 0L35.1 0 35.1-1Q36.7-1.1 37.5-1.4 38.3-1.7 38.57-2.6 38.85-3.5 38.85-5.3L38.85-5.3 38.85-30.1Q38.85-31.95 38.57-32.83 38.3-33.7 37.47-34.02 36.65-34.35 35.1-34.4L35.1-34.4ZM44.65-16.8L44.55-17.65Q46.7-17.6 48.27-17.45 49.85-17.3 51.05-17.18 52.25-17.05 53.2-17L53.2-17Q57.75-16.6 59.92-15.05 62.1-13.5 62.75-10.4L62.75-10.4 63.9-5.25Q64.35-3.25 64.85-2.45 65.35-1.65 66.3-1.65L66.3-1.65Q66.95-1.7 67.37-1.98 67.8-2.25 68.3-2.8L68.3-2.8 69-2.2Q67.65-0.65 66.1 0.03 64.55 0.7 62.35 0.7L62.35 0.7Q59.65 0.7 57.9-0.45 56.15-1.6 55.6-4.7L55.6-4.7 54.7-9.7Q54.35-11.8 53.85-13.38 53.35-14.95 52.47-15.88 51.6-16.8 50.05-16.8L50.05-16.8 44.65-16.8ZM101.4-35.4L101.4-35.4 101.4-34.4Q99.8-34.2 98.97-33.58 98.14-32.95 97.89-31.6 97.64-30.25 97.64-27.8L97.64-27.8 97.64-14.55Q97.64-11.3 97.19-8.6 96.75-5.9 95.59-3.95L95.59-3.95Q94.3-1.8 91.8-0.55 89.3 0.7 85.44 0.7L85.44 0.7Q83.14 0.7 80.75 0.18 78.34-0.35 76.44-1.8L76.44-1.8Q74.84-3.15 74-4.85 73.14-6.55 72.84-8.88 72.55-11.2 72.55-14.4L72.55-14.4 72.55-30.1Q72.55-31.95 72.27-32.83 72-33.7 71.19-34.02 70.39-34.35 68.8-34.4L68.8-34.4 68.8-35.4Q70.05-35.35 72.17-35.3 74.3-35.25 76.59-35.25L76.59-35.25Q78.89-35.25 81.02-35.3 83.14-35.35 84.55-35.4L84.55-35.4 84.55-34.4Q82.84-34.35 81.97-34.02 81.09-33.7 80.8-32.83 80.5-31.95 80.5-30.1L80.5-30.1 80.5-11.25Q80.5-7.9 81.09-5.63 81.69-3.35 83.22-2.2 84.75-1.05 87.39-1.05L87.39-1.05Q90.89-1.05 92.87-2.7 94.84-4.35 95.67-7.28 96.5-10.2 96.5-14L96.5-14 96.5-27.2Q96.5-29.95 96.14-31.43 95.8-32.9 94.77-33.55 93.75-34.2 91.64-34.4L91.64-34.4 91.64-35.4Q92.59-35.35 94.14-35.3 95.69-35.25 97.05-35.25L97.05-35.25Q98.25-35.25 99.42-35.3 100.59-35.35 101.4-35.4ZM121.84-36.1L121.84-36.1Q125.14-36.1 127.27-35.13 129.39-34.15 131.04-32.85L131.04-32.85Q132.04-32.1 132.57-32.68 133.09-33.25 133.29-35.4L133.29-35.4 134.44-35.4Q134.34-33.45 134.29-30.68 134.24-27.9 134.24-23.3L134.24-23.3 133.09-23.3Q132.84-25.6 132.44-27.23 132.04-28.85 131.34-30.1 130.64-31.35 129.34-32.35L129.34-32.35Q128.09-33.6 126.44-34.2 124.79-34.8 122.99-34.8L122.99-34.8Q120.29-34.8 118.39-33.38 116.49-31.95 115.32-29.5 114.14-27.05 113.59-23.98 113.04-20.9 113.04-17.6L113.04-17.6Q113.04-14.25 113.62-11.18 114.19-8.1 115.42-5.7 116.64-3.3 118.59-1.9 120.54-0.5 123.19-0.5L123.19-0.5Q124.84-0.5 126.52-1.13 128.19-1.75 129.39-2.95L129.39-2.95Q131.34-4.45 132.04-6.68 132.74-8.9 133.09-12.6L133.09-12.6 134.24-12.6Q134.24-7.85 134.29-4.93 134.34-2 134.44 0L134.44 0 133.29 0Q133.09-2.15 132.62-2.7 132.14-3.25 131.04-2.55L131.04-2.55Q129.19-1.25 127.12-0.28 125.04 0.7 121.79 0.7L121.79 0.7Q116.49 0.7 112.52-1.45 108.54-3.6 106.34-7.65 104.14-11.7 104.14-17.4L104.14-17.4Q104.14-23 106.42-27.2 108.69-31.4 112.67-33.75 116.64-36.1 121.84-36.1ZM171.69-35.4L171.69-35.4 171.69-34.45Q170.09-34.1 168.27-33.05 166.44-32 164.44-29.65L164.44-29.65 155.04-18.45 157.94-22.6 169.84-4.05Q170.54-2.9 171.34-2.2 172.14-1.5 173.44-1L173.44-1 173.44 0Q171.69-0.1 169.54-0.13 167.39-0.15 165.64-0.15L165.64-0.15Q164.59-0.15 163.09-0.13 161.59-0.1 159.29 0L159.29 0 159.29-1Q161.34-1.1 161.77-1.58 162.19-2.05 161.39-3.25L161.39-3.25 154.14-15Q153.44-16.15 152.89-16.73 152.34-17.3 151.79-17.53 151.24-17.75 150.34-17.8L150.34-17.8 150.34-18.85Q152.54-18.9 154.27-20.05 155.99-21.2 158.04-23.55L158.04-23.55 160.99-27.1Q162.89-29.35 163.22-30.98 163.54-32.6 162.56-33.5 161.59-34.4 159.59-34.45L159.59-34.45 159.59-35.4Q161.44-35.35 163.12-35.3 164.79-35.25 166.99-35.25L166.99-35.25Q169.89-35.25 171.69-35.4ZM154.39-35.4L154.39-35.4 154.39-34.4Q152.79-34.35 151.97-34.02 151.14-33.7 150.89-32.83 150.64-31.95 150.64-30.1L150.64-30.1 150.64-5.3Q150.64-3.5 150.92-2.6 151.19-1.7 151.99-1.4 152.79-1.1 154.39-1L154.39-1 154.39 0Q153.04-0.1 150.99-0.13 148.94-0.15 146.84-0.15L146.84-0.15Q144.44-0.15 142.31-0.13 140.19-0.1 138.94 0L138.94 0 138.94-1Q140.54-1.1 141.34-1.4 142.14-1.7 142.42-2.6 142.69-3.5 142.69-5.3L142.69-5.3 142.69-30.1Q142.69-31.95 142.42-32.83 142.14-33.7 141.31-34.02 140.49-34.35 138.94-34.4L138.94-34.4 138.94-35.4Q140.19-35.35 142.31-35.3 144.44-35.25 146.84-35.25L146.84-35.25Q148.94-35.25 150.99-35.3 153.04-35.35 154.39-35.4ZM228.79-35.4L228.79-35.4 228.79-34.4Q227.19-34.35 226.39-34.02 225.59-33.7 225.31-32.83 225.04-31.95 225.04-30.1L225.04-30.1 225.04-5.3Q225.04-3.5 225.31-2.6 225.59-1.7 226.39-1.4 227.19-1.1 228.79-1L228.79-1 228.79 0Q227.39-0.1 225.26-0.13 223.14-0.15 220.94-0.15L220.94-0.15Q218.54-0.15 216.44-0.13 214.34-0.1 213.04 0L213.04 0 213.04-1Q214.74-1.1 215.61-1.4 216.49-1.7 216.79-2.6 217.09-3.5 217.09-5.3L217.09-5.3 217.09-32.35 217.44-32.35 205.04 0.05 204.24 0.05 190.74-32.15 190.74-8.2Q190.74-5.45 191.03-3.98 191.34-2.5 192.36-1.88 193.39-1.25 195.59-1L195.59-1 195.59 0Q194.64-0.1 193.09-0.13 191.53-0.15 190.19-0.15L190.19-0.15Q189.03-0.15 187.84-0.13 186.64-0.1 185.84 0L185.84 0 185.84-1Q187.44-1.25 188.24-1.85 189.03-2.45 189.31-3.83 189.59-5.2 189.59-7.6L189.59-7.6 189.59-30.1Q189.59-31.95 189.31-32.83 189.03-33.7 188.21-34.02 187.39-34.35 185.84-34.4L185.84-34.4 185.84-35.4Q186.64-35.35 187.84-35.3 189.03-35.25 190.19-35.25L190.19-35.25Q192.34-35.25 194.41-35.3 196.49-35.35 198.09-35.4L198.09-35.4 208.59-10.05 207.34-8.9 217.39-35.25Q218.24-35.25 219.14-35.25 220.04-35.25 220.94-35.25L220.94-35.25Q223.14-35.25 225.26-35.3 227.39-35.35 228.79-35.4ZM248.83-35.5L248.83-35.5 260.98-4.2Q261.68-2.4 262.56-1.73 263.43-1.05 264.13-1L264.13-1 264.13 0Q262.63-0.1 260.61-0.13 258.58-0.15 256.53-0.15L256.53-0.15Q254.23-0.15 252.18-0.13 250.13-0.1 248.93 0L248.93 0 248.93-1Q251.48-1.1 252.16-1.88 252.83-2.65 251.83-5.2L251.83-5.2 243.33-28.45 244.23-29.75 236.63-9.95Q235.23-6.25 235.26-4.35 235.28-2.45 236.48-1.78 237.68-1.1 239.68-1L239.68-1 239.68 0Q238.03-0.1 236.53-0.13 235.03-0.15 233.48-0.15L233.48-0.15Q232.38-0.15 231.41-0.13 230.43-0.1 229.68 0L229.68 0 229.68-1Q230.73-1.2 231.83-2.35 232.93-3.5 233.98-6.25L233.98-6.25 245.38-35.5Q246.18-35.45 247.11-35.45 248.03-35.45 248.83-35.5ZM237.93-14.4L252.33-14.4 252.33-13.4 237.43-13.4 237.93-14.4ZM297.43-35.4L297.43-35.4 297.43-34.4Q295.83-34.2 295.03-33.58 294.23-32.95 293.96-31.6 293.68-30.25 293.68-27.8L293.68-27.8 293.68 0.1Q293.08 0.05 292.46 0.05 291.83 0.05 291.13 0.1L291.13 0.1 269.43-27.4 269.43-8.2Q269.43-5.45 269.73-3.98 270.03-2.5 271.06-1.88 272.08-1.25 274.28-1L274.28-1 274.28 0Q273.33-0.1 271.78-0.13 270.23-0.15 268.88-0.15L268.88-0.15Q267.73-0.15 266.53-0.13 265.33-0.1 264.53 0L264.53 0 264.53-1Q266.13-1.25 266.93-1.85 267.73-2.45 268.01-3.83 268.28-5.2 268.28-7.6L268.28-7.6 268.28-30.1Q268.28-31.95 268.01-32.83 267.73-33.7 266.91-34.02 266.08-34.35 264.53-34.4L264.53-34.4 264.53-35.4Q265.33-35.35 266.53-35.3 267.73-35.25 268.88-35.25L268.88-35.25Q270.08-35.25 271.18-35.3 272.28-35.35 273.18-35.4L273.18-35.4 292.53-11.55 292.53-27.2Q292.53-29.95 292.23-31.43 291.93-32.9 290.91-33.55 289.88-34.2 287.68-34.4L287.68-34.4 287.68-35.4Q288.63-35.35 290.18-35.3 291.73-35.25 293.08-35.25L293.08-35.25Q294.28-35.25 295.46-35.3 296.63-35.35 297.43-35.4ZM316.63-35.5L316.63-35.5 328.78-4.2Q329.48-2.4 330.35-1.73 331.23-1.05 331.93-1L331.93-1 331.93 0Q330.43-0.1 328.4-0.13 326.38-0.15 324.33-0.15L324.33-0.15Q322.03-0.15 319.98-0.13 317.93-0.1 316.73 0L316.73 0 316.73-1Q319.28-1.1 319.95-1.88 320.63-2.65 319.63-5.2L319.63-5.2 311.13-28.45 312.03-29.75 304.43-9.95Q303.03-6.25 303.05-4.35 303.08-2.45 304.28-1.78 305.48-1.1 307.48-1L307.48-1 307.48 0Q305.83-0.1 304.33-0.13 302.83-0.15 301.28-0.15L301.28-0.15Q300.18-0.15 299.2-0.13 298.23-0.1 297.48 0L297.48 0 297.48-1Q298.53-1.2 299.63-2.35 300.73-3.5 301.78-6.25L301.78-6.25 313.18-35.5Q313.98-35.45 314.9-35.45 315.83-35.45 316.63-35.5ZM305.73-14.4L320.13-14.4 320.13-13.4 305.23-13.4 305.73-14.4ZM351.33-36.1L351.33-36.1Q354.73-36.1 356.88-35.15 359.03-34.2 360.73-32.85L360.73-32.85Q361.33-32.4 361.73-32.4L361.73-32.4Q362.68-32.4 362.98-35.4L362.98-35.4 364.13-35.4Q364.03-33.45 363.98-30.68 363.93-27.9 363.93-23.3L363.93-23.3 362.78-23.3Q362.43-26.3 361.7-28.53 360.98-30.75 359.03-32.35L359.03-32.35Q357.83-33.5 356.05-34.15 354.28-34.8 352.48-34.8L352.48-34.8Q349.73-34.8 347.78-33.38 345.83-31.95 344.58-29.5 343.33-27.05 342.73-23.98 342.13-20.9 342.13-17.6L342.13-17.6Q342.13-8.6 344.6-4.45 347.08-0.3 351.73-0.3L351.73-0.3Q352.93-0.3 353.83-0.6 354.73-0.9 355.28-1.3L355.28-1.3Q355.98-1.8 356.23-2.38 356.48-2.95 356.48-3.9L356.48-3.9 356.48-8.8Q356.48-11.1 356.1-12.23 355.73-13.35 354.63-13.75 353.53-14.15 351.43-14.2L351.43-14.2 351.43-15.2Q352.48-15.15 353.95-15.13 355.43-15.1 357.03-15.08 358.63-15.05 359.98-15.05L359.98-15.05Q362.08-15.05 363.83-15.1 365.58-15.15 366.68-15.2L366.68-15.2 366.68-14.2Q365.28-14.1 364.85-13.4 364.43-12.7 364.43-9.9L364.43-9.9 364.43 0 363.43 0Q363.38-0.85 363.05-1.85 362.73-2.85 361.98-2.85L361.98-2.85Q361.63-2.85 361.05-2.68 360.48-2.5 359.28-1.8L359.28-1.8Q357.43-0.75 355.38-0.03 353.33 0.7 351.08 0.7L351.08 0.7Q342.33 0.7 337.78-4.05 333.23-8.8 333.23-17.3L333.23-17.3Q333.23-23 335.55-27.2 337.88-31.4 341.95-33.75 346.03-36.1 351.33-36.1ZM396.27-35.4L396.27-35.4Q396.07-33.2 396-31.15 395.92-29.1 395.92-28L395.92-28Q395.92-27 395.97-26.1 396.02-25.2 396.07-24.6L396.07-24.6 394.92-24.6Q394.42-28.25 393.37-30.38 392.32-32.5 390.65-33.38 388.97-34.25 386.72-34.25L386.72-34.25 384.67-34.25Q383.17-34.25 382.45-34 381.72-33.75 381.47-33.02 381.22-32.3 381.22-30.7L381.22-30.7 381.22-4.7Q381.22-3.15 381.47-2.4 381.72-1.65 382.45-1.4 383.17-1.15 384.67-1.15L384.67-1.15 387.12-1.15Q389.37-1.15 391.1-2.13 392.82-3.1 394.05-5.45 395.27-7.8 395.92-11.8L395.92-11.8 397.07-11.8Q396.92-10.2 396.92-7.6L396.92-7.6Q396.92-6.45 396.97-4.35 397.02-2.25 397.27 0L397.27 0Q394.72-0.1 391.52-0.13 388.32-0.15 385.82-0.15L385.82-0.15Q384.12-0.15 381.32-0.15 378.52-0.15 375.37-0.13 372.22-0.1 369.52 0L369.52 0 369.52-1Q371.12-1.1 371.92-1.4 372.72-1.7 373-2.6 373.27-3.5 373.27-5.3L373.27-5.3 373.27-30.1Q373.27-31.95 373-32.83 372.72-33.7 371.9-34.02 371.07-34.35 369.52-34.4L369.52-34.4 369.52-35.4Q372.22-35.35 375.37-35.3 378.52-35.25 381.32-35.25 384.12-35.25 385.82-35.25L385.82-35.25Q388.12-35.25 391.05-35.27 393.97-35.3 396.27-35.4ZM379.72-18.3L388.47-18.3Q388.47-18.3 388.47-17.8 388.47-17.3 388.47-17.3L388.47-17.3 379.72-17.3Q379.72-17.3 379.72-17.8 379.72-18.3 379.72-18.3L379.72-18.3ZM388.77-24.9L389.92-24.9Q389.72-22.05 389.75-20.55 389.77-19.05 389.77-17.8L389.77-17.8Q389.77-16.55 389.82-15.05 389.87-13.55 390.07-10.7L390.07-10.7 388.92-10.7Q388.67-12.45 388-13.95 387.32-15.45 386.07-16.38 384.82-17.3 382.82-17.3L382.82-17.3 382.82-18.3Q384.82-18.3 386.02-19.4 387.22-20.5 387.87-22.03 388.52-23.55 388.77-24.9L388.77-24.9ZM401.22-34.4L401.22-35.4Q402.47-35.35 404.6-35.3 406.72-35.25 408.82-35.25L408.82-35.25Q411.22-35.25 413.47-35.3 415.72-35.35 416.67-35.35L416.67-35.35Q423.62-35.35 427.07-33.08 430.52-30.8 430.52-26.65L430.52-26.65Q430.52-24.95 429.82-23.23 429.12-21.5 427.45-20.03 425.77-18.55 422.87-17.68 419.97-16.8 415.57-16.8L415.57-16.8 410.77-16.8 410.77-17.8 415.07-17.8Q418.02-17.8 419.55-18.93 421.07-20.05 421.65-21.93 422.22-23.8 422.22-26.1L422.22-26.1Q422.22-30.05 420.82-32.23 419.42-34.4 416.02-34.4L416.02-34.4Q414.07-34.4 413.5-33.55 412.92-32.7 412.92-30.1L412.92-30.1 412.92-5.3Q412.92-3.5 413.2-2.6 413.47-1.7 414.27-1.4 415.07-1.1 416.67-1L416.67-1 416.67 0Q415.32-0.1 413.27-0.13 411.22-0.15 409.12-0.15L409.12-0.15Q406.72-0.15 404.6-0.13 402.47-0.1 401.22 0L401.22 0 401.22-1Q402.82-1.1 403.62-1.4 404.42-1.7 404.7-2.6 404.97-3.5 404.97-5.3L404.97-5.3 404.97-30.1Q404.97-31.95 404.7-32.83 404.42-33.7 403.6-34.02 402.77-34.35 401.22-34.4L401.22-34.4ZM410.77-16.8L410.67-17.65Q412.82-17.6 414.4-17.45 415.97-17.3 417.17-17.18 418.37-17.05 419.32-17L419.32-17Q423.87-16.6 426.05-15.05 428.22-13.5 428.87-10.4L428.87-10.4 430.02-5.25Q430.47-3.25 430.97-2.45 431.47-1.65 432.42-1.65L432.42-1.65Q433.07-1.7 433.5-1.98 433.92-2.25 434.42-2.8L434.42-2.8 435.12-2.2Q433.77-0.65 432.22 0.03 430.67 0.7 428.47 0.7L428.47 0.7Q425.77 0.7 424.02-0.45 422.27-1.6 421.72-4.7L421.72-4.7 420.82-9.7Q420.47-11.8 419.97-13.38 419.47-14.95 418.6-15.88 417.72-16.8 416.17-16.8L416.17-16.8 410.77-16.8Z" opacity="1" transform="matrix(1,0,0,1,0,0)" fill="#ffffff" class="undefined-text-0" data-fill-palette-color="primary" id="text-0"></path></svg></g></svg></g></svg></g></svg></g><g transform="matrix(1,0,0,1,104.58810227818937,0)"><svg viewBox="0 0 186.34379544362125 46.359064189905524" height="46.359064189905524" width="186.34379544362125"><g><svg version="1.0" xmlns="http://www.w3.org/2000/svg" xmlns:xlink="http://www.w3.org/1999/xlink" x="8" y="0" viewBox="0 0 100 27.21500015258789" enable-background="new 0 0 100 27.214" xml:space="preserve" width="170.34379544362125" height="46.359064189905524" class="icon-icon-0" data-fill-palette-color="accent" id="icon-0"><path fill-rule="evenodd" clip-rule="evenodd" d="M91.304 27.061c2.65 0 4.815-2.169 4.815-4.831 0-0.308-0.035-0.624-0.096-0.921L100 21.312V0H56.8v19.519h-2.32V0L17.505 0.006v3.724H12.39c-2.093 0-3.39 0-4.252 2.894l-1.44 5.641H3.38c-1.633 0-1.633 0-1.633 1.582 0 2.52 0 5.048 0 7.569H0v1.755h6.254c0.318 2.379 1.83 4.008 4.228 4.008 2.37 0 3.983-1.668 4.515-4.008h2.508v-1.755h16.666c-0.039 0.224-0.055 0.719-0.055 0.962 0 2.646 2.147 4.801 4.79 4.801 2.634 0 4.782-2.155 4.782-4.801 0-0.303-0.039-0.68-0.094-0.962l18.054 0.004c-0.062 0.311-0.097 0.644-0.097 0.974 0 2.654 2.159 4.821 4.808 4.821 2.649 0 4.803-2.167 4.803-4.821 0-0.326-0.033-0.833-0.094-1.144l15.526 0.048c-0.059 0.303-0.094 0.617-0.094 0.933C86.499 24.892 88.662 27.061 91.304 27.061" fill="#ffffff" data-fill-palette-color="accent"></path></svg></g></svg></g><g><rect width="104.58810227818937" height="3.025114508827731" y="42.33394968107779" x="290.9318977218106" fill="#ffffff" data-fill-palette-color="accent"></rect><rect width="104.58810227818937" height="3.025114508827731" y="42.33394968107779" x="0" fill="#ffffff" data-fill-palette-color="accent"></rect><rect width="104.58810227818937" height="3.025114508827731" y="36.28372066342233" x="290.9318977218106" fill="#ffffff" data-fill-palette-color="accent"></rect><rect width="104.58810227818937" height="3.025114508827731" y="36.28372066342233" x="0" fill="#ffffff" data-fill-palette-color="accent"></rect></g></svg></g><defs></defs></svg><rect width="395.52" height="87.82312108397329" fill="none" stroke="none" visibility="hidden"></rect></g></svg></g></svg>